<mxfile host="app.diagrams.net" agent="Mozilla/5.0 (Windows NT 10.0; Win64; x64; rv:135.0) Gecko/20100101 Firefox/135.0" version="26.0.15">
  <diagram name="Page-1" id="7t1NBV1IFznhwAwAsxn2">
    <mxGraphModel dx="840" dy="935" grid="1" gridSize="10" guides="1" tooltips="1" connect="1" arrows="1" fold="1" page="1" pageScale="1" pageWidth="850" pageHeight="1100" math="0" shadow="0">
      <root>
        <mxCell id="0" />
        <mxCell id="1" parent="0" />
        <mxCell id="Hnf8UpVt7OJy6dkn5n5H-1" value="" style="endArrow=none;html=1;rounded=0;strokeWidth=1;dashed=1;dashPattern=8 8;exitX=0.6;exitY=0.017;exitDx=0;exitDy=0;exitPerimeter=0;strokeColor=#000000;" parent="1" source="Hnf8UpVt7OJy6dkn5n5H-64" edge="1">
          <mxGeometry width="50" height="50" relative="1" as="geometry">
            <mxPoint x="2590" y="860" as="sourcePoint" />
            <mxPoint x="2590" y="240" as="targetPoint" />
          </mxGeometry>
        </mxCell>
        <mxCell id="Hnf8UpVt7OJy6dkn5n5H-2" value="" style="endArrow=none;html=1;rounded=0;strokeWidth=1;dashed=1;dashPattern=8 8;exitX=0.5;exitY=0;exitDx=0;exitDy=0;strokeColor=#000000;" parent="1" source="Hnf8UpVt7OJy6dkn5n5H-62" edge="1">
          <mxGeometry width="50" height="50" relative="1" as="geometry">
            <mxPoint x="2330" y="860" as="sourcePoint" />
            <mxPoint x="2329" y="240" as="targetPoint" />
          </mxGeometry>
        </mxCell>
        <mxCell id="Hnf8UpVt7OJy6dkn5n5H-3" value="" style="endArrow=none;html=1;rounded=0;strokeWidth=1;dashed=1;dashPattern=8 8;strokeColor=#000000;" parent="1" edge="1">
          <mxGeometry width="50" height="50" relative="1" as="geometry">
            <mxPoint x="2189" y="850" as="sourcePoint" />
            <mxPoint x="2189" y="240" as="targetPoint" />
          </mxGeometry>
        </mxCell>
        <mxCell id="Hnf8UpVt7OJy6dkn5n5H-4" value="" style="endArrow=none;html=1;rounded=0;strokeWidth=1;dashed=1;dashPattern=8 8;exitX=0.5;exitY=0;exitDx=0;exitDy=0;strokeColor=#000000;" parent="1" source="Hnf8UpVt7OJy6dkn5n5H-63" edge="1">
          <mxGeometry width="50" height="50" relative="1" as="geometry">
            <mxPoint x="2480.8199999999997" y="840" as="sourcePoint" />
            <mxPoint x="2480" y="240" as="targetPoint" />
          </mxGeometry>
        </mxCell>
        <mxCell id="Hnf8UpVt7OJy6dkn5n5H-5" value="&lt;div style=&quot;line-height: 200%;&quot; align=&quot;right&quot;&gt;&lt;b&gt;&lt;font style=&quot;font-size: 20px; line-height: 200%;&quot;&gt;Properties&lt;/font&gt;&lt;/b&gt;&lt;/div&gt;&lt;div align=&quot;right&quot;&gt;&lt;font style=&quot;font-size: 20px;&quot;&gt;&lt;br&gt;&lt;/font&gt;&lt;/div&gt;&lt;div style=&quot;line-height: 200%;&quot; align=&quot;right&quot;&gt;&lt;div style=&quot;line-height: 200%;&quot; align=&quot;right&quot;&gt;&lt;font style=&quot;font-size: 20px; line-height: 200%;&quot;&gt;Privacy and minimal disclosure&lt;/font&gt;&lt;div style=&quot;line-height: 200%;&quot; align=&quot;right&quot;&gt;&lt;font style=&quot;font-size: 20px; line-height: 200%;&quot;&gt;Portability&lt;/font&gt;&lt;div style=&quot;line-height: 200%;&quot; align=&quot;right&quot;&gt;&lt;font style=&quot;font-size: 20px; line-height: 200%;&quot;&gt;Persistence&lt;/font&gt;&lt;div style=&quot;line-height: 200%;&quot; align=&quot;right&quot;&gt;&lt;font style=&quot;font-size: 20px; line-height: 200%;&quot;&gt;Cost&lt;/font&gt;&lt;div style=&quot;line-height: 200%;&quot; align=&quot;right&quot;&gt;&lt;font style=&quot;font-size: 20px; line-height: 200%;&quot;&gt;Access and availability&lt;/font&gt;&lt;div style=&quot;line-height: 200%;&quot; align=&quot;right&quot;&gt;&lt;font style=&quot;font-size: 20px; line-height: 200%;&quot;&gt;Usability and consistency&lt;/font&gt;&lt;div style=&quot;line-height: 200%;&quot; align=&quot;right&quot;&gt;&lt;font style=&quot;font-size: 20px; line-height: 200%;&quot;&gt;Security and protection&lt;/font&gt;&lt;div style=&quot;line-height: 200%;&quot; align=&quot;right&quot;&gt;&lt;font style=&quot;font-size: 20px; line-height: 200%;&quot;&gt;Consent&lt;/font&gt;&lt;/div&gt;&lt;div style=&quot;line-height: 200%;&quot; align=&quot;right&quot;&gt;&lt;font style=&quot;font-size: 20px; line-height: 200%;&quot;&gt;Transparency&lt;/font&gt;&lt;div style=&quot;line-height: 200%;&quot; align=&quot;right&quot;&gt;&lt;font style=&quot;font-size: 20px; line-height: 200%;&quot;&gt;Verifiability and Authenticity&lt;/font&gt;&lt;div style=&quot;line-height: 200%;&quot; align=&quot;right&quot;&gt;&lt;font style=&quot;font-size: 20px; line-height: 200%;&quot;&gt;Decentralization and Autonomy&lt;/font&gt;&lt;/div&gt;&lt;div style=&quot;line-height: 200%;&quot; align=&quot;right&quot;&gt;&lt;font style=&quot;font-size: 20px; line-height: 200%;&quot;&gt;Standard&lt;/font&gt;&lt;/div&gt;&lt;div style=&quot;line-height: 200%;&quot; align=&quot;right&quot;&gt;&lt;div style=&quot;line-height: 200%;&quot; align=&quot;right&quot;&gt;&lt;font style=&quot;font-size: 20px; line-height: 200%;&quot;&gt;Interoperability&lt;/font&gt;&lt;div style=&quot;line-height: 200%;&quot; align=&quot;right&quot;&gt;&lt;font style=&quot;font-size: 20px; line-height: 200%;&quot;&gt;Ownership and control&lt;/font&gt;&lt;/div&gt;&lt;/div&gt;&lt;/div&gt;&lt;/div&gt;&lt;/div&gt;&lt;/div&gt;&lt;/div&gt;&lt;/div&gt;&lt;/div&gt;&lt;/div&gt;&lt;/div&gt;&lt;/div&gt;&lt;font style=&quot;font-size: 20px; line-height: 200%;&quot;&gt;Existence and representation&lt;/font&gt;&lt;/div&gt;" style="rounded=1;whiteSpace=wrap;html=1;align=right;fillColor=none;strokeColor=none;strokeWidth=2;" parent="1" vertex="1">
          <mxGeometry x="1670" y="310" width="360" height="412.5" as="geometry" />
        </mxCell>
        <mxCell id="Hnf8UpVt7OJy6dkn5n5H-6" value="1" style="rounded=0;whiteSpace=wrap;html=1;fillColor=#fff2cc;strokeColor=#000000;strokeWidth=1;" parent="1" vertex="1">
          <mxGeometry x="2050" y="300" width="20" height="20" as="geometry" />
        </mxCell>
        <mxCell id="Hnf8UpVt7OJy6dkn5n5H-7" value="1" style="rounded=0;whiteSpace=wrap;html=1;fillColor=#ffe6cc;strokeColor=#000000;strokeWidth=1;" parent="1" vertex="1">
          <mxGeometry x="2050" y="420" width="20" height="20" as="geometry" />
        </mxCell>
        <mxCell id="Hnf8UpVt7OJy6dkn5n5H-8" value="8" style="rounded=0;whiteSpace=wrap;html=1;fillColor=#fff2cc;strokeColor=#000000;strokeWidth=1;" parent="1" vertex="1">
          <mxGeometry x="2210" y="660" width="160" height="20" as="geometry" />
        </mxCell>
        <mxCell id="Hnf8UpVt7OJy6dkn5n5H-9" value="2" style="rounded=0;whiteSpace=wrap;html=1;fillColor=#ffe6cc;strokeColor=#000000;strokeWidth=1;" parent="1" vertex="1">
          <mxGeometry x="2150" y="540" width="40" height="20" as="geometry" />
        </mxCell>
        <mxCell id="Hnf8UpVt7OJy6dkn5n5H-10" value="7" style="rounded=0;whiteSpace=wrap;html=1;fillColor=#fff2cc;strokeColor=#000000;strokeWidth=1;" parent="1" vertex="1">
          <mxGeometry x="2090" y="580" width="140" height="20" as="geometry" />
        </mxCell>
        <mxCell id="Hnf8UpVt7OJy6dkn5n5H-11" value="4" style="rounded=0;whiteSpace=wrap;html=1;fillColor=#ffe6cc;strokeColor=#000000;strokeWidth=1;" parent="1" vertex="1">
          <mxGeometry x="2070" y="620" width="80" height="20" as="geometry" />
        </mxCell>
        <mxCell id="Hnf8UpVt7OJy6dkn5n5H-12" value="6" style="rounded=0;whiteSpace=wrap;html=1;fillColor=#ffe6cc;strokeColor=#000000;strokeWidth=1;" parent="1" vertex="1">
          <mxGeometry x="2090" y="660" width="120" height="20" as="geometry" />
        </mxCell>
        <mxCell id="Hnf8UpVt7OJy6dkn5n5H-13" value="2" style="rounded=0;whiteSpace=wrap;html=1;fillColor=#fa6800;strokeColor=#000000;fontColor=#000000;strokeWidth=1;" parent="1" vertex="1">
          <mxGeometry x="2050" y="660" width="40" height="20" as="geometry" />
        </mxCell>
        <mxCell id="Hnf8UpVt7OJy6dkn5n5H-14" value="7" style="rounded=0;whiteSpace=wrap;html=1;fillColor=#fa6800;strokeColor=#000000;fontColor=#000000;strokeWidth=1;" parent="1" vertex="1">
          <mxGeometry x="2050" y="700" width="140" height="20" as="geometry" />
        </mxCell>
        <mxCell id="Hnf8UpVt7OJy6dkn5n5H-15" value="8" style="rounded=0;whiteSpace=wrap;html=1;fillColor=#ffe6cc;strokeColor=#000000;strokeWidth=1;" parent="1" vertex="1">
          <mxGeometry x="2150" y="780" width="160" height="20" as="geometry" />
        </mxCell>
        <mxCell id="Hnf8UpVt7OJy6dkn5n5H-16" value="5" style="rounded=0;whiteSpace=wrap;html=1;fillColor=#fa6800;strokeColor=#000000;fontColor=#000000;strokeWidth=1;" parent="1" vertex="1">
          <mxGeometry x="2050" y="780" width="100" height="20" as="geometry" />
        </mxCell>
        <mxCell id="Hnf8UpVt7OJy6dkn5n5H-17" value="1" style="rounded=0;whiteSpace=wrap;html=1;fillColor=#ffe6cc;strokeColor=#000000;strokeWidth=1;" parent="1" vertex="1">
          <mxGeometry x="2190" y="700" width="20" height="20" as="geometry" />
        </mxCell>
        <mxCell id="Hnf8UpVt7OJy6dkn5n5H-18" value="2" style="rounded=0;whiteSpace=wrap;html=1;fillColor=#ffe6cc;strokeColor=#000000;strokeWidth=1;" parent="1" vertex="1">
          <mxGeometry x="2050" y="340" width="40" height="20" as="geometry" />
        </mxCell>
        <mxCell id="Hnf8UpVt7OJy6dkn5n5H-19" value="6" style="rounded=0;whiteSpace=wrap;html=1;fillColor=#fff2cc;strokeColor=#000000;strokeWidth=1;" parent="1" vertex="1">
          <mxGeometry x="2150" y="620" width="120" height="20" as="geometry" />
        </mxCell>
        <mxCell id="Hnf8UpVt7OJy6dkn5n5H-20" value="8" style="rounded=0;whiteSpace=wrap;html=1;fillColor=#fff2cc;strokeColor=#000000;strokeWidth=1;" parent="1" vertex="1">
          <mxGeometry x="2050" y="500" width="160" height="20" as="geometry" />
        </mxCell>
        <mxCell id="Hnf8UpVt7OJy6dkn5n5H-21" value="&lt;div&gt;5&lt;/div&gt;" style="rounded=0;whiteSpace=wrap;html=1;fillColor=#fff2cc;strokeColor=#000000;strokeWidth=1;" parent="1" vertex="1">
          <mxGeometry x="2190" y="540" width="100" height="20" as="geometry" />
        </mxCell>
        <mxCell id="Hnf8UpVt7OJy6dkn5n5H-22" value="1" style="rounded=0;whiteSpace=wrap;html=1;fillColor=#fff2cc;strokeColor=#000000;strokeWidth=1;" parent="1" vertex="1">
          <mxGeometry x="2050" y="380" width="20" height="20" as="geometry" />
        </mxCell>
        <mxCell id="Hnf8UpVt7OJy6dkn5n5H-23" value="1" style="rounded=0;whiteSpace=wrap;html=1;fillColor=#d5e8d4;strokeColor=#000000;strokeWidth=1;" parent="1" vertex="1">
          <mxGeometry x="2050" y="260" width="20" height="20" as="geometry" />
        </mxCell>
        <mxCell id="Hnf8UpVt7OJy6dkn5n5H-24" value="3" style="rounded=0;whiteSpace=wrap;html=1;fillColor=#fff2cc;strokeColor=#000000;strokeWidth=1;" parent="1" vertex="1">
          <mxGeometry x="2070" y="420" width="60" height="20" as="geometry" />
        </mxCell>
        <mxCell id="Hnf8UpVt7OJy6dkn5n5H-25" value="10" style="rounded=0;whiteSpace=wrap;html=1;fillColor=#fff2cc;strokeColor=#000000;strokeWidth=1;" parent="1" vertex="1">
          <mxGeometry x="2210" y="700" width="200" height="20" as="geometry" />
        </mxCell>
        <mxCell id="Hnf8UpVt7OJy6dkn5n5H-26" value="8" style="rounded=0;whiteSpace=wrap;html=1;fillColor=#fff2cc;strokeColor=#000000;strokeWidth=1;" parent="1" vertex="1">
          <mxGeometry x="2310" y="780" width="160" height="20" as="geometry" />
        </mxCell>
        <mxCell id="Hnf8UpVt7OJy6dkn5n5H-27" value="12" style="rounded=0;whiteSpace=wrap;html=1;fillColor=#fff2cc;strokeColor=#000000;strokeWidth=1;" parent="1" vertex="1">
          <mxGeometry x="2210" y="740" width="240" height="20" as="geometry" />
        </mxCell>
        <mxCell id="Hnf8UpVt7OJy6dkn5n5H-28" value="10" style="rounded=0;whiteSpace=wrap;html=1;fillColor=#d5e8d4;strokeColor=#000000;strokeWidth=1;" parent="1" vertex="1">
          <mxGeometry x="2230" y="580" width="260" height="20" as="geometry" />
        </mxCell>
        <mxCell id="Hnf8UpVt7OJy6dkn5n5H-29" value="2" style="rounded=0;whiteSpace=wrap;html=1;fillColor=#d5e8d4;strokeColor=#000000;strokeWidth=1;" parent="1" vertex="1">
          <mxGeometry x="2470" y="780" width="40" height="20" as="geometry" />
        </mxCell>
        <mxCell id="Hnf8UpVt7OJy6dkn5n5H-30" value="6" style="rounded=0;whiteSpace=wrap;html=1;fillColor=#d5e8d4;strokeColor=#000000;strokeWidth=1;" parent="1" vertex="1">
          <mxGeometry x="2270" y="620" width="120" height="20" as="geometry" />
        </mxCell>
        <mxCell id="Hnf8UpVt7OJy6dkn5n5H-31" value="12" style="rounded=0;whiteSpace=wrap;html=1;fillColor=#d5e8d4;strokeColor=#000000;strokeWidth=1;" parent="1" vertex="1">
          <mxGeometry x="2150" y="460" width="240" height="20" as="geometry" />
        </mxCell>
        <mxCell id="Hnf8UpVt7OJy6dkn5n5H-32" value="11" style="rounded=0;whiteSpace=wrap;html=1;fillColor=#d5e8d4;strokeColor=#000000;strokeWidth=1;" parent="1" vertex="1">
          <mxGeometry x="2290" y="540" width="220" height="20" as="geometry" />
        </mxCell>
        <mxCell id="Hnf8UpVt7OJy6dkn5n5H-33" value="10" style="rounded=0;whiteSpace=wrap;html=1;fillColor=#d5e8d4;strokeColor=#000000;strokeWidth=1;" parent="1" vertex="1">
          <mxGeometry x="2070" y="380" width="200" height="20" as="geometry" />
        </mxCell>
        <mxCell id="Hnf8UpVt7OJy6dkn5n5H-34" value="13" style="rounded=0;whiteSpace=wrap;html=1;fillColor=#d5e8d4;strokeColor=#000000;strokeWidth=1;" parent="1" vertex="1">
          <mxGeometry x="2130" y="420" width="260" height="20" as="geometry" />
        </mxCell>
        <mxCell id="Hnf8UpVt7OJy6dkn5n5H-35" value="7" style="rounded=0;whiteSpace=wrap;html=1;fillColor=#d5e8d4;strokeColor=#000000;strokeWidth=1;" parent="1" vertex="1">
          <mxGeometry x="2370" y="660" width="140" height="20" as="geometry" />
        </mxCell>
        <mxCell id="Hnf8UpVt7OJy6dkn5n5H-36" value="9" style="rounded=0;whiteSpace=wrap;html=1;fillColor=#d5e8d4;strokeColor=#000000;strokeWidth=1;" parent="1" vertex="1">
          <mxGeometry x="2210" y="500" width="180" height="20" as="geometry" />
        </mxCell>
        <mxCell id="Hnf8UpVt7OJy6dkn5n5H-37" value="15" style="rounded=0;whiteSpace=wrap;html=1;fillColor=#ffe6cc;strokeColor=#000000;strokeWidth=1;" parent="1" vertex="1">
          <mxGeometry x="2050" y="820" width="300" height="20" as="geometry" />
        </mxCell>
        <mxCell id="Hnf8UpVt7OJy6dkn5n5H-38" value="26" style="rounded=0;whiteSpace=wrap;html=1;fillColor=#60a917;strokeColor=#000000;fontColor=#ffffff;strokeWidth=1;" parent="1" vertex="1">
          <mxGeometry x="2070" y="300" width="520" height="20" as="geometry" />
        </mxCell>
        <mxCell id="Hnf8UpVt7OJy6dkn5n5H-39" value="26" style="rounded=0;whiteSpace=wrap;html=1;fillColor=#60a917;strokeColor=#000000;fontColor=#ffffff;strokeWidth=1;" parent="1" vertex="1">
          <mxGeometry x="2070" y="260" width="520" height="20" as="geometry" />
        </mxCell>
        <mxCell id="Hnf8UpVt7OJy6dkn5n5H-40" value="10" style="rounded=0;whiteSpace=wrap;html=1;fillColor=#60a917;strokeColor=#000000;fontColor=#ffffff;strokeWidth=1;" parent="1" vertex="1">
          <mxGeometry x="2390" y="620" width="200" height="20" as="geometry" />
        </mxCell>
        <mxCell id="Hnf8UpVt7OJy6dkn5n5H-41" value="&lt;div&gt;10&lt;/div&gt;" style="rounded=0;whiteSpace=wrap;html=1;fillColor=#60a917;strokeColor=#000000;fontColor=#ffffff;strokeWidth=1;" parent="1" vertex="1">
          <mxGeometry x="2390" y="500" width="200" height="20" as="geometry" />
        </mxCell>
        <mxCell id="Hnf8UpVt7OJy6dkn5n5H-42" value="5" style="rounded=0;whiteSpace=wrap;html=1;fillColor=#60a917;strokeColor=#000000;fontColor=#ffffff;strokeWidth=1;" parent="1" vertex="1">
          <mxGeometry x="2490" y="580" width="100" height="20" as="geometry" />
        </mxCell>
        <mxCell id="Hnf8UpVt7OJy6dkn5n5H-43" value="10" style="rounded=0;whiteSpace=wrap;html=1;fillColor=#60a917;strokeColor=#000000;fontColor=#ffffff;strokeWidth=1;" parent="1" vertex="1">
          <mxGeometry x="2390" y="460" width="200" height="20" as="geometry" />
        </mxCell>
        <mxCell id="Hnf8UpVt7OJy6dkn5n5H-44" value="4" style="rounded=0;whiteSpace=wrap;html=1;fillColor=#60a917;strokeColor=#000000;fontColor=#ffffff;strokeWidth=1;" parent="1" vertex="1">
          <mxGeometry x="2510" y="540" width="80" height="20" as="geometry" />
        </mxCell>
        <mxCell id="Hnf8UpVt7OJy6dkn5n5H-45" value="2" style="rounded=0;whiteSpace=wrap;html=1;fillColor=#60a917;strokeColor=#000000;fontColor=#ffffff;strokeWidth=1;" parent="1" vertex="1">
          <mxGeometry x="2550" y="820" width="40" height="20" as="geometry" />
        </mxCell>
        <mxCell id="Hnf8UpVt7OJy6dkn5n5H-46" value="10" style="rounded=0;whiteSpace=wrap;html=1;fillColor=#60a917;strokeColor=#000000;fontColor=#ffffff;strokeWidth=1;" parent="1" vertex="1">
          <mxGeometry x="2390" y="420" width="200" height="20" as="geometry" />
        </mxCell>
        <mxCell id="Hnf8UpVt7OJy6dkn5n5H-47" value="16" style="rounded=0;whiteSpace=wrap;html=1;fillColor=#60a917;strokeColor=#000000;fontColor=#ffffff;strokeWidth=1;" parent="1" vertex="1">
          <mxGeometry x="2270" y="380" width="320" height="20" as="geometry" />
        </mxCell>
        <mxCell id="Hnf8UpVt7OJy6dkn5n5H-48" value="4" style="rounded=0;whiteSpace=wrap;html=1;fillColor=#60a917;strokeColor=#000000;fontColor=#ffffff;strokeWidth=1;" parent="1" vertex="1">
          <mxGeometry x="2510" y="660" width="80" height="20" as="geometry" />
        </mxCell>
        <mxCell id="Hnf8UpVt7OJy6dkn5n5H-49" value="5" style="rounded=0;whiteSpace=wrap;html=1;fillColor=#60a917;strokeColor=#000000;fontColor=#ffffff;strokeWidth=1;" parent="1" vertex="1">
          <mxGeometry x="2490" y="700" width="100" height="20" as="geometry" />
        </mxCell>
        <mxCell id="Hnf8UpVt7OJy6dkn5n5H-50" value="25" style="rounded=0;whiteSpace=wrap;html=1;fillColor=#60a917;strokeColor=#000000;fontColor=#ffffff;strokeWidth=1;" parent="1" vertex="1">
          <mxGeometry x="2090" y="340" width="500" height="20" as="geometry" />
        </mxCell>
        <mxCell id="Hnf8UpVt7OJy6dkn5n5H-51" value="4" style="rounded=0;whiteSpace=wrap;html=1;fillColor=#60a917;strokeColor=#000000;fontColor=#ffffff;strokeWidth=1;" parent="1" vertex="1">
          <mxGeometry x="2510" y="780" width="80" height="20" as="geometry" />
        </mxCell>
        <mxCell id="Hnf8UpVt7OJy6dkn5n5H-52" value="4" style="rounded=0;whiteSpace=wrap;html=1;fillColor=#d5e8d4;strokeColor=#000000;strokeWidth=1;" parent="1" vertex="1">
          <mxGeometry x="2410" y="700" width="80" height="20" as="geometry" />
        </mxCell>
        <mxCell id="Hnf8UpVt7OJy6dkn5n5H-53" value="7" style="rounded=0;whiteSpace=wrap;html=1;fillColor=#60a917;strokeColor=#000000;fontColor=#ffffff;strokeWidth=1;" parent="1" vertex="1">
          <mxGeometry x="2450" y="740" width="140" height="20" as="geometry" />
        </mxCell>
        <mxCell id="Hnf8UpVt7OJy6dkn5n5H-54" value="" style="rounded=0;whiteSpace=wrap;html=1;fillColor=#fa6800;strokeColor=#C73500;fontColor=#000000;" parent="1" vertex="1">
          <mxGeometry x="1990" y="910" width="20" height="20" as="geometry" />
        </mxCell>
        <mxCell id="Hnf8UpVt7OJy6dkn5n5H-55" value="" style="rounded=0;whiteSpace=wrap;html=1;fillColor=#ffe6cc;strokeColor=#d79b00;" parent="1" vertex="1">
          <mxGeometry x="2120" y="910" width="20" height="20" as="geometry" />
        </mxCell>
        <mxCell id="Hnf8UpVt7OJy6dkn5n5H-56" value="" style="rounded=0;whiteSpace=wrap;html=1;fillColor=#d5e8d4;strokeColor=#82b366;" parent="1" vertex="1">
          <mxGeometry x="2380" y="910" width="20" height="20" as="geometry" />
        </mxCell>
        <mxCell id="Hnf8UpVt7OJy6dkn5n5H-57" value="" style="rounded=0;whiteSpace=wrap;html=1;fillColor=#fff2cc;strokeColor=#d6b656;" parent="1" vertex="1">
          <mxGeometry x="2250" y="910" width="20" height="20" as="geometry" />
        </mxCell>
        <mxCell id="Hnf8UpVt7OJy6dkn5n5H-58" value="" style="rounded=0;whiteSpace=wrap;html=1;fillColor=#60a917;strokeColor=#2D7600;fontColor=#ffffff;" parent="1" vertex="1">
          <mxGeometry x="2510" y="910" width="20" height="20" as="geometry" />
        </mxCell>
        <mxCell id="Hnf8UpVt7OJy6dkn5n5H-59" value="Not important&#xa;(irrelevant)" style="text;whiteSpace=wrap;align=center;" parent="1" vertex="1">
          <mxGeometry x="1950" y="940" width="100" height="40" as="geometry" />
        </mxCell>
        <mxCell id="Hnf8UpVt7OJy6dkn5n5H-60" value="Slightly important &#xa;(unnecessary)" style="text;whiteSpace=wrap;align=center;" parent="1" vertex="1">
          <mxGeometry x="2080" y="940" width="100" height="40" as="geometry" />
        </mxCell>
        <mxCell id="Hnf8UpVt7OJy6dkn5n5H-61" value="25%" style="text;whiteSpace=wrap;align=center;" parent="1" vertex="1">
          <mxGeometry x="2140" y="850" width="100" height="40" as="geometry" />
        </mxCell>
        <mxCell id="Hnf8UpVt7OJy6dkn5n5H-62" value="50%" style="text;whiteSpace=wrap;align=center;" parent="1" vertex="1">
          <mxGeometry x="2280" y="850" width="100" height="40" as="geometry" />
        </mxCell>
        <mxCell id="Hnf8UpVt7OJy6dkn5n5H-63" value="75%" style="text;whiteSpace=wrap;align=center;" parent="1" vertex="1">
          <mxGeometry x="2430" y="850" width="100" height="40" as="geometry" />
        </mxCell>
        <mxCell id="Hnf8UpVt7OJy6dkn5n5H-64" value="100%" style="text;whiteSpace=wrap;align=center;" parent="1" vertex="1">
          <mxGeometry x="2530" y="850" width="100" height="40" as="geometry" />
        </mxCell>
        <mxCell id="Hnf8UpVt7OJy6dkn5n5H-65" value="0%" style="text;whiteSpace=wrap;align=center;" parent="1" vertex="1">
          <mxGeometry x="2010" y="850" width="100" height="40" as="geometry" />
        </mxCell>
        <mxCell id="Hnf8UpVt7OJy6dkn5n5H-66" value="Moderately important&#xa;(useful)" style="text;whiteSpace=wrap;align=center;" parent="1" vertex="1">
          <mxGeometry x="2195" y="940" width="130" height="40" as="geometry" />
        </mxCell>
        <mxCell id="Hnf8UpVt7OJy6dkn5n5H-67" value="Important&#xa;(desirable)" style="text;whiteSpace=wrap;align=center;" parent="1" vertex="1">
          <mxGeometry x="2330" y="940" width="130" height="40" as="geometry" />
        </mxCell>
        <mxCell id="Hnf8UpVt7OJy6dkn5n5H-68" value="Very important&#xa;(mandatory)" style="text;whiteSpace=wrap;align=center;" parent="1" vertex="1">
          <mxGeometry x="2470" y="940" width="100" height="40" as="geometry" />
        </mxCell>
        <mxCell id="Hnf8UpVt7OJy6dkn5n5H-69" value="1" style="rounded=0;whiteSpace=wrap;html=1;fillColor=#fa6800;strokeColor=#000000;fontColor=#000000;strokeWidth=1;" parent="1" vertex="1">
          <mxGeometry x="2050" y="460" width="20" height="20" as="geometry" />
        </mxCell>
        <mxCell id="Hnf8UpVt7OJy6dkn5n5H-70" value="1" style="rounded=0;whiteSpace=wrap;html=1;fillColor=#ffe6cc;strokeColor=#000000;strokeWidth=1;" parent="1" vertex="1">
          <mxGeometry x="2070" y="460" width="20" height="20" as="geometry" />
        </mxCell>
        <mxCell id="Hnf8UpVt7OJy6dkn5n5H-71" value="3" style="rounded=0;whiteSpace=wrap;html=1;fillColor=#fff2cc;strokeColor=#000000;strokeWidth=1;" parent="1" vertex="1">
          <mxGeometry x="2090" y="460" width="60" height="20" as="geometry" />
        </mxCell>
        <mxCell id="Hnf8UpVt7OJy6dkn5n5H-72" value="5" style="rounded=0;whiteSpace=wrap;html=1;fillColor=#fa6800;strokeColor=#000000;fontColor=#000000;strokeWidth=1;" parent="1" vertex="1">
          <mxGeometry x="2050" y="540" width="100" height="20" as="geometry" />
        </mxCell>
        <mxCell id="Hnf8UpVt7OJy6dkn5n5H-73" value="2" style="rounded=0;whiteSpace=wrap;html=1;fillColor=#ffe6cc;strokeColor=#000000;strokeWidth=1;" parent="1" vertex="1">
          <mxGeometry x="2050" y="580" width="40" height="20" as="geometry" />
        </mxCell>
        <mxCell id="Hnf8UpVt7OJy6dkn5n5H-74" value="1" style="rounded=0;whiteSpace=wrap;html=1;fillColor=#fa6800;strokeColor=#000000;fontColor=#000000;strokeWidth=1;" parent="1" vertex="1">
          <mxGeometry x="2050" y="620" width="20" height="20" as="geometry" />
        </mxCell>
        <mxCell id="Hnf8UpVt7OJy6dkn5n5H-75" value="8" style="rounded=0;whiteSpace=wrap;html=1;fillColor=#fa6800;strokeColor=#000000;fontColor=#000000;strokeWidth=1;" parent="1" vertex="1">
          <mxGeometry x="2050" y="740" width="160" height="20" as="geometry" />
        </mxCell>
        <mxCell id="Hnf8UpVt7OJy6dkn5n5H-76" value="" style="endArrow=none;html=1;rounded=0;strokeWidth=2;strokeColor=#000000;" parent="1" edge="1">
          <mxGeometry width="50" height="50" relative="1" as="geometry">
            <mxPoint x="2050" y="850" as="sourcePoint" />
            <mxPoint x="2050" y="240" as="targetPoint" />
          </mxGeometry>
        </mxCell>
        <mxCell id="Hnf8UpVt7OJy6dkn5n5H-77" value="9" style="rounded=0;whiteSpace=wrap;html=1;fillColor=#fff2cc;strokeColor=#000000;strokeWidth=1;" parent="1" vertex="1">
          <mxGeometry x="2350" y="820" width="180" height="20" as="geometry" />
        </mxCell>
        <mxCell id="Hnf8UpVt7OJy6dkn5n5H-78" value="1" style="rounded=0;whiteSpace=wrap;html=1;fillColor=#d5e8d4;strokeColor=#000000;strokeWidth=1;" parent="1" vertex="1">
          <mxGeometry x="2530" y="820" width="20" height="20" as="geometry" />
        </mxCell>
      </root>
    </mxGraphModel>
  </diagram>
</mxfile>
